<svg height="60" width="180" xmlns="http://www.w3.org/2000/svg"><g fill="none" fill-rule="evenodd"><rect fill="#000" height="59" rx="8" stroke="#a6a6a6" width="179" x=".5" y=".5"/><path d="M77.021 32.022c3.447 0 5.718 2.724 5.718 6.933 0 4.22-2.259 6.931-5.667 6.931-1.935 0-3.472-.865-4.273-2.376h-.065v6.726h-2.787V32.164h2.699v2.26h.05c.775-1.459 2.428-2.402 4.325-2.402zm14.948 0c3.447 0 5.718 2.724 5.718 6.933 0 4.22-2.26 6.931-5.667 6.931-1.935 0-3.473-.865-4.274-2.376h-.064v6.726h-2.787V32.164h2.698v2.26h.051c.774-1.459 2.427-2.402 4.325-2.402zm20.011-5.215c3.936 0 6.635 2.208 6.726 5.42h-2.814c-.17-1.858-1.705-2.98-3.95-2.98-2.246 0-3.782 1.136-3.782 2.787 0 1.317.98 2.093 3.38 2.685l2.054.504c3.82.905 5.41 2.44 5.41 5.165 0 3.484-2.777 5.667-7.192 5.667-4.13 0-6.92-2.132-7.1-5.5h2.854c.207 1.846 2 3.06 4.453 3.06 2.35 0 4.04-1.214 4.04-2.88 0-1.445-1.02-2.31-3.434-2.903l-2.413-.582c-3.422-.827-5.009-2.426-5.009-5.022 0-3.213 2.8-5.421 6.777-5.421zm23.559 5.19c3.937 0 6.442 2.684 6.442 6.958 0 4.284-2.493 6.958-6.442 6.958-3.95 0-6.441-2.674-6.441-6.958 0-4.274 2.515-6.959 6.44-6.959zm22.573 0c3.758 0 6.12 2.58 6.12 6.698v.956h-9.592v.168c0 2.323 1.46 3.847 3.654 3.847 1.548 0 2.763-.736 3.136-1.91h2.646c-.375 2.465-2.775 4.157-5.847 4.157-3.95 0-6.403-2.647-6.403-6.894 0-4.26 2.466-7.023 6.286-7.023zM125.02 28.95v3.214h2.583v2.207h-2.583v7.486c0 1.164.518 1.706 1.653 1.706.284 0 .737-.04.917-.065v2.195c-.31.078-.929.129-1.548.129-2.75 0-3.822-1.032-3.822-3.666V34.37h-1.976v-2.207h1.976V28.95zm25.25 3.071c.4 0 .735.053.955.105v2.607c-.22-.091-.71-.168-1.252-.168-1.794 0-2.906 1.214-2.906 3.125v8.055h-2.787V32.164h2.658v2.311h.065c.427-1.536 1.666-2.454 3.267-2.454zm-88.78-4.904l6.725 18.627h-3.059l-1.704-5.034h-7.1l-1.705 5.034H51.64l6.726-18.627zm-33.035-4.623c1.284 0 3.726-1.772 6.245-1.508 1.054.03 4.053.416 5.988 3.237-.158.095-3.573 2.102-3.536 6.228.042 4.947 4.328 6.58 4.379 6.599-.026.115-.67 2.36-2.277 4.64-1.343 2.006-2.748 3.967-4.982 4.003-2.169.05-2.898-1.277-5.386-1.277-2.511 0-3.288 1.24-5.369 1.326-2.127.08-3.751-2.142-5.142-4.13-2.778-4.06-4.942-11.441-2.041-16.463 1.405-2.463 3.97-4.05 6.71-4.092 2.128-.044 4.103 1.437 5.411 1.437zm107.083 11.8c-2.259 0-3.602 1.743-3.602 4.66 0 2.944 1.343 4.66 3.602 4.66 2.257 0 3.601-1.716 3.601-4.66 0-2.93-1.344-4.66-3.601-4.66zm-59.254.104c-2.13 0-3.563 1.845-3.563 4.557 0 2.736 1.433 4.569 3.563 4.569 2.169 0 3.59-1.794 3.59-4.57 0-2.749-1.421-4.556-3.59-4.556zm14.947 0c-2.13 0-3.562 1.845-3.562 4.557 0 2.736 1.432 4.569 3.562 4.569 2.17 0 3.59-1.794 3.59-4.57 0-2.749-1.42-4.556-3.59-4.556zm-31.29-4.182h-.077l-2.776 8.17h5.628zm98.17 4.04c-1.924 0-3.316 1.394-3.459 3.446h6.79c-.065-2.079-1.394-3.447-3.33-3.447zm-3.903-19.094c1.88 0 3.014 1.284 3.014 3.405v.465h-4.77v.075c.043 1.185.732 1.935 1.798 1.935.807 0 1.36-.291 1.608-.82h1.283c-.303 1.211-1.383 1.955-2.927 1.955-1.935 0-3.12-1.327-3.12-3.486 0-2.158 1.21-3.53 3.114-3.53zm-88.5 0c1.968 0 3.183 1.326 3.183 3.504 0 2.189-1.21 3.51-3.183 3.51-1.977 0-3.188-1.321-3.188-3.51 0-2.178 1.217-3.504 3.188-3.504zm29.305 0c1.968 0 3.185 1.326 3.185 3.504 0 2.189-1.212 3.51-3.185 3.51-1.977 0-3.187-1.321-3.187-3.51 0-2.178 1.216-3.504 3.187-3.504zm27.019 0c1.968 0 3.183 1.326 3.183 3.504 0 2.189-1.211 3.51-3.183 3.51-1.978 0-3.188-1.321-3.188-3.51 0-2.178 1.216-3.504 3.188-3.504zm-8.703-2.506v9.39h-1.277v-1.067h-.106c-.402.738-1.191 1.18-2.121 1.18-1.718 0-2.804-1.354-2.804-3.493 0-2.134 1.097-3.486 2.804-3.486.924 0 1.705.44 2.071 1.185h.1v-3.709zm-10.708 2.505c1.693 0 2.649.843 2.649 2.271v4.614h-1.284v-.95h-.105c-.404.677-1.142 1.061-2.03 1.061-1.302 0-2.251-.786-2.251-2.02 0-1.217.906-1.917 2.512-2.016l1.83-.107v-.582c0-.714-.47-1.117-1.383-1.117-.744 0-1.26.274-1.407.751h-1.291c.136-1.16 1.228-1.905 2.76-1.905zm37.65-1.55v1.713h1.465v1.122h-1.464v3.474c0 .706.29 1.017.955 1.017.204 0 .323-.014.509-.032v1.112a4.46 4.46 0 0 1-.726.067c-1.482 0-2.073-.522-2.073-1.824v-3.814h-1.071v-1.122h1.07V13.61h1.336zM84.18 15.16c1.508 0 2.337.907 2.337 2.513v4.373h-1.332v-4.038c0-1.086-.472-1.625-1.458-1.625-.985 0-1.612.657-1.612 1.712v3.95H80.78v-6.754h1.283v1.073h.1c.329-.75 1-1.203 2.016-1.203zm60.7-2.505v3.721h.104c.329-.756 1.043-1.209 2.06-1.209 1.438 0 2.326.912 2.326 2.518v4.361h-1.335v-4.032c0-1.079-.502-1.626-1.444-1.626-1.092 0-1.7.69-1.7 1.713v3.945h-1.333v-9.392h1.321zm-88.139.44c2.654 0 4.21 1.631 4.21 4.448 0 2.859-1.544 4.503-4.21 4.503h-3.234v-8.95h3.234zm33.235-.44v9.391H88.64v-9.392h1.334zm-18.77 2.636l1.21 5.154h.101l1.388-5.154h1.28l1.388 5.154h.105l1.205-5.154h1.332l-1.854 6.755h-1.383l-1.397-4.974h-.105l-1.39 4.974h-1.37l-1.861-6.755zm59.198-.13c1.508 0 2.337.906 2.337 2.512v4.373h-1.332v-4.038c0-1.086-.472-1.625-1.458-1.625-.985 0-1.612.657-1.612 1.712v3.95h-1.334v-6.754h1.283v1.073h.1c.329-.75 1-1.203 2.016-1.203zm-26.46 3.833l-1.65.105c-.93.062-1.351.378-1.351.974 0 .609.528.961 1.252.961 1.005 0 1.75-.639 1.75-1.476v-.564zm18.09-2.65c-1.159 0-1.811.857-1.811 2.321 0 1.476.653 2.325 1.81 2.325 1.156 0 1.813-.855 1.813-2.325 0-1.464-.657-2.32-1.813-2.32zm-56.324 0c-1.158 0-1.811.857-1.811 2.321 0 1.476.653 2.325 1.81 2.325 1.156 0 1.813-.855 1.813-2.325 0-1.464-.657-2.32-1.812-2.32zm29.305 0c-1.158 0-1.81.857-1.81 2.321 0 1.476.652 2.325 1.81 2.325 1.155 0 1.812-.855 1.812-2.325 0-1.464-.657-2.32-1.812-2.32zm15.19.032c-1.122 0-1.805.869-1.805 2.29 0 1.432.675 2.294 1.805 2.294 1.123 0 1.818-.874 1.818-2.289 0-1.408-.702-2.295-1.818-2.295zm-53.62-2.016h-1.687v6.42h1.687c1.872 0 2.952-1.165 2.952-3.219 0-2.022-1.098-3.201-2.952-3.201zm-21.857-1.28c.212 1.933-.553 3.837-1.672 5.236-1.169 1.379-3.036 2.43-4.856 2.295-.238-1.858.684-3.835 1.716-5.041 1.166-1.37 3.192-2.418 4.812-2.49zm119.474 3.216c-.986 0-1.674.696-1.75 1.75h3.412c-.03-1.06-.675-1.75-1.662-1.75z" fill="#fffffe"/></g></svg>