<svg width="74" height="70" xmlns="http://www.w3.org/2000/svg"><g transform="translate(-3 -2)" fill="none" fill-rule="evenodd"><path d="M7.642 16.49C-5.343 34.36-1.381 59.374 16.49 72.358c17.87 12.985 42.884 9.023 55.868-8.848 12.984-17.87 9.023-42.884-8.848-55.868C45.64-5.342 20.626-1.381 7.642 16.49" fill="none"/><path d="M40 44.352c.537 0 1.123.035 1.743.1v.01c1.62.175 3.608.594 5.748 1.316 4.498 1.53 9.345 4.32 12.431 8.567 5.164 7.11 6.061 13.476 2.284 16.22a5.377 5.377 0 0 1-3.223 1.035c-3.45 0-7.64-2.913-11.49-8.21-2.905-4-4.113-9.09-4.3-13.635.952.202 2.108.513 3.398.99.301 3.654 1.353 7.593 3.6 10.684 4.29 5.907 8.307 7.706 10.056 6.44 1.75-1.272 1.274-5.652-3.021-11.564-2.325-3.2-5.91-5.464-9.408-6.87-.042-.018-.08-.03-.122-.045-.402-.16-.804-.314-1.2-.45v.015a26.623 26.623 0 0 0-3.329-.907v-.014c-1.18-.234-2.26-.35-3.167-.35-.46 0-.966.03-1.507.09a30.175 30.175 0 0 0-.26-3.32A16.924 16.924 0 0 1 40 44.353zm-4.79-4.67c.261.583.481 1.142.651 1.663.2.616.373 1.316.519 2.07l.064.358.062.37.005.026c.182 1.16.301 2.487.323 3.924.062 4.928-1.059 10.796-4.321 15.287-2.467 3.394-5.096 5.871-7.604 7.163-2.696 1.39-5.223 1.394-7.115.02-3.777-2.743-2.88-9.11 2.284-16.218 2.904-3.996 7.367-6.712 11.633-8.294a25.45 25.45 0 0 1 .105 3.537c-3.38 1.414-6.798 3.63-9.041 6.717-4.295 5.91-4.771 10.29-3.022 11.562 1.107.806 2.75.165 3.63-.287 1.428-.735 3.702-2.401 6.433-6.16 2.21-3.04 3.259-6.903 3.577-10.507h.01c.01-.1.013-.198.02-.297.008-.09.012-.179.02-.268.026-.418.046-.83.054-1.232l.008-.177a26.887 26.887 0 0 0-.177-3.442l.01-.003c-.142-1.195-.367-2.258-.647-3.12-.143-.44-.33-.915-.556-1.413a30.22 30.22 0 0 0 3.076-1.279zM59.8 25.485c3.992-1.296 7.575-1.756 10.362-1.325 2.996.462 5.044 1.941 5.767 4.166.722 2.224-.064 4.625-2.217 6.76-2.002 1.986-5.17 3.72-9.16 5.017-4.696 1.526-9.901 1.103-14.28-.122.57-.98 1.25-1.974 2-2.924 3.563.839 7.624 1.054 11.249-.124 4.419-1.436 6.705-3.084 7.844-4.215.702-.695 1.817-2.059 1.394-3.362-.423-1.303-2.127-1.75-3.104-1.902-1.585-.245-4.404-.234-8.824 1.202-3.952 1.284-7.345 4.21-9.793 7.266l-.004-.002c-.03.04-.057.077-.088.116-.145.183-.299.365-.437.55.006 0 .013.003.02.005a26.21 26.21 0 0 0-1.893 2.886l-.016-.006c-.589 1.05-1.031 2.04-1.312 2.903a13.97 13.97 0 0 0-.385 1.49 30.315 30.315 0 0 0-3.237-.782c.131-.628.281-1.214.452-1.738.18-.55.417-1.143.697-1.76l.017.009c.76-1.676 1.827-3.46 3.116-5.161 2.84-3.728 6.94-7.356 11.833-8.947zM9.839 24.16c2.787-.428 6.371.029 10.363 1.326 4.692 1.524 8.654 4.925 11.477 8.489-.99.434-2.118.846-3.339 1.19-2.387-2.773-5.545-5.332-9.169-6.509-3.144-1.022-5.478-1.321-7.135-1.321-.671 0-1.232.049-1.69.12-.977.15-2.682.596-3.105 1.9-.668 2.057 2.285 5.319 9.223 7.573 3.802 1.234 8.08.943 11.761.003.177-.044.345-.095.516-.142.25-.068.506-.132.75-.206l-.009-.01a26.335 26.335 0 0 0 3.225-1.226l.008.012c1.093-.505 2.035-1.046 2.767-1.58.375-.27.768-.594 1.172-.963a29.42 29.42 0 0 0 2.163 2.532c-.472.427-.933.808-1.375 1.13-.295.213-.623.427-.968.64l-.001-.002c-1.659 1.021-4.08 2.134-6.982 2.929l-.45.118c-4.232 1.08-9.149 1.383-13.606-.065-6.338-2.06-13.117-6.378-11.365-11.772.724-2.225 2.772-3.705 5.769-4.166zM40 2.22c4.668 0 7.685 5.678 7.685 14.466 0 4.937-2.013 9.757-4.533 13.543-.65-.723-1.4-1.654-2.165-2.802 1.903-3.13 3.365-6.928 3.365-10.741 0-7.308-2.189-11.133-4.352-11.133-2.163 0-4.352 3.82-4.352 11.122 0 4.458 1.988 8.903 4.352 12.273l.015-.024a26.294 26.294 0 0 0 2.16 2.693l-.015.02c.818.884 1.624 1.612 2.357 2.146l.29.204c.301.204.631.408.987.61-.65.942-1.24 1.896-1.746 2.837a16.769 16.769 0 0 1-1.49-.955l-.304-.227a18.606 18.606 0 0 1-1.588-1.382.075.075 0 0 0 .008-.007c-1.166-1.127-2.437-2.612-3.646-4.38 0 .003-.002.005-.003.007-2.602-3.826-4.71-8.76-4.71-13.815C32.315 7.895 35.33 2.22 40 2.22z" fill="#FFC72C"/></g></svg>